<?xml version="1.0" encoding="UTF-8" standalone="no"?>
<svg version="1.1" xmlns="http://www.w3.org/2000/svg" xmlns:xlink="http://www.w3.org/1999/xlink">
    <!-- Generator: Sketch 39.1 (31720) - http://www.bohemiancoding.com/sketch -->
    <defs>
        <polygon id="path-1" points="0 880 880 880 880 0 0 0"></polygon>
    </defs>

    <symbol id='logo-1' viewBox='410 0 40 850'>
      <g id="Page-2" stroke="none" stroke-width="1" fill="none" fill-rule="evenodd">
          <g id="HapiRealEstateLogo-C" transform="translate(-6.000000, -29.000000)">
              <g>
                  <path d="M843.074408,792.54824 C843.074408,811.06432 827.924328,826.2144 809.408248,826.2144 L68.972728,826.2144 C50.456648,826.2144 35.307448,811.06432 35.307448,792.54824 L35.307448,92.46688 C35.307448,73.9508 50.456648,58.8016 68.972728,58.8016 L809.408248,58.8016 C827.924328,58.8016 843.074408,73.9508 843.074408,92.46688 L843.074408,792.54824 L843.074408,792.54824 Z" id="Stroke-1" stroke="#33498D" stroke-width="58.619"></path>
                  <path d="M843.074408,792.54824 C843.074408,811.06432 827.924328,826.2144 809.408248,826.2144 L68.972728,826.2144 C50.456648,826.2144 35.307448,811.06432 35.307448,792.54824 L35.307448,92.46688 C35.307448,73.9508 50.456648,58.8016 68.972728,58.8016 L809.408248,58.8016 C827.924328,58.8016 843.074408,73.9508 843.074408,92.46688 L843.074408,792.54824 Z" id="Fill-3" fill="#FFFFFF"></path>
                  <mask id="mask-2" fill="white">
                      <use xlink:href="#path-1"></use>
                  </mask>
                  <g id="Clip-6"></g>
                  <polygon id="Fill-5" fill="#84BF41" mask="url(#mask-2)" points="368.85816 481.16552 409.50184 481.16552 409.50184 427.10448 368.85816 427.10448"></polygon>
                  <path d="M458.577944,417.433632 C456.136824,389.126672 439.787304,366.685792 419.174184,363.372592 L419.174184,417.433632 L458.577944,417.433632 Z" id="Fill-7" fill="#84BF41" mask="url(#mask-2)"></path>
                  <path d="M409.501664,363.224312 C388.459104,366.021832 371.666944,388.714392 369.186224,417.434072 L409.501664,417.434072 L409.501664,363.224312 Z" id="Fill-8" fill="#84BF41" mask="url(#mask-2)"></path>
                  <polygon id="Fill-9" fill="#84BF41" mask="url(#mask-2)" points="419.17392 481.165784 458.15 481.165784 458.87248 427.104744 419.17392 427.104744"></polygon>
                  <path d="M204.670928,459.25 L305.615728,379.29232 L305.615728,451.3872 L307.030768,520.95384 C307.271888,547.0828 308.569888,563.67872 310.930048,570.7372 C311.871648,574.0328 313.467968,576.56544 315.706688,578.33072 C317.955088,580.09776 321.555168,581.51104 326.510448,582.56968 C331.468368,583.6292 345.284368,584.39216 367.952288,584.86384 L367.952288,615.93752 C329.230528,614.28752 288.378288,613.4656 245.403488,613.4656 C206.919328,613.4656 172.795568,614.28752 143.047168,615.93752 L143.047168,584.86384 C168.315488,583.92752 183.190128,582.93048 187.674608,581.86656 C192.160848,580.8132 195.349968,579.10952 197.233168,576.75992 C199.126928,574.41032 200.545488,566.1832 201.485328,552.09088 C203.614048,528.12496 204.670928,521.8972 204.670928,476.78928" id="Fill-10" fill="#84BF41" mask="url(#mask-2)"></path>
                  <path d="M643.520592,552.09088 C644.466592,566.1832 645.883392,574.41032 647.777152,576.75992 C649.660352,579.10952 652.852112,580.8132 657.334832,581.86656 C661.822832,582.93048 676.693952,583.92752 701.962272,584.86384 L701.962272,615.93752 C672.214752,614.28752 638.090112,613.4656 599.603312,613.4656 C556.628512,613.4656 515.782432,614.28752 477.053632,615.93752 L477.053632,584.86384 C499.725952,584.39216 513.537552,583.6292 518.495472,582.56968 C523.457792,581.51104 527.050832,580.09776 529.300112,578.33072 C531.541472,576.56632 533.136032,574.0328 534.080272,570.7372 C536.436032,563.67872 537.741072,547.0828 537.975152,520.95384 L539.394592,451.3872 L539.394592,399.53936 L640.334992,479.49968" id="Fill-11" fill="#84BF41" mask="url(#mask-2)"></path>
                  <path d="M535.81088,213.902304 L535.7836,212.647424 C535.54952,186.517584 534.24536,169.924304 531.8896,162.861424 C530.94536,159.564944 529.3464,157.037584 527.1068,155.269664 C524.85576,153.500864 521.26712,152.086704 516.3048,151.033344 C511.34512,149.969424 497.53088,149.208224 474.86208,148.734784 L474.86208,117.661984 C513.59088,119.311104 554.43344,120.133904 597.41088,120.133904 C635.89856,120.133904 670.0232,119.311104 699.77072,117.661984 L699.77072,148.734784 C674.50328,149.676384 659.62424,150.670784 655.14328,151.732944 C650.6544,152.791584 647.46968,154.489104 645.5812,156.840464 C643.69184,159.190944 642.27504,167.416304 641.32816,181.506864 C640.49304,190.954544 639.82248,202.044304 639.31384,214.773504" id="Fill-12" fill="#33498D" mask="url(#mask-2)"></path>
                  <path d="M639.59588,365.587992 L639.59588,235.248552 L536.03836,235.248552 L536.03836,288.140952 L437.89724,214.738392 L306.32492,313.976872 L306.32492,285.117272 C306.32492,240.009352 307.38884,205.473752 309.50964,181.506952 C310.4574,167.416392 311.86892,159.191032 313.76532,156.840552 C315.6494,154.489192 318.835,152.791672 323.32564,151.732152 C327.80484,150.669992 342.68388,149.676472 367.9522,148.734872 L367.9522,117.662072 C338.20468,119.311192 304.08004,120.133992 265.59236,120.133992 C222.61844,120.133992 181.76884,119.311192 143.04708,117.662072 L143.04708,148.734872 C165.71588,149.208312 179.5266,149.969512 184.4854,151.032552 C189.4442,152.086792 193.04076,153.500952 195.28916,155.268872 C197.5314,157.037672 199.12332,159.565032 200.07108,162.860632 C202.42948,169.924392 203.72748,186.517672 203.96508,212.647512 L205.38364,282.210632 L205.38364,390.109192 L133.54836,444.294312 L187.71148,444.294312 L406.95116,279.223032 L631.34148,444.294312 L744.8298,444.294312 L639.59588,365.587992 Z" id="Fill-13" fill="#33498D" mask="url(#mask-2)"></path>
                  <polygon id="Fill-14" fill="#33498D" mask="url(#mask-2)" points="101.945976 711.612352 101.945976 680.485872 72.462456 680.485872 72.462456 711.612352 62.023016 711.612352 62.023016 640.079792 72.462456 640.079792 72.462456 670.915872 101.945976 670.915872 101.945976 640.079792 112.385416 640.079792 112.385416 711.612352"></polygon>
                  <path d="M161.88216,680.968728 L152.79528,653.612168 L152.60256,653.612168 L143.41888,680.968728 L161.88216,680.968728 Z M173.38552,711.612088 L165.45848,690.538728 L139.74576,690.538728 L131.81872,711.612088 L120.79936,711.612088 L147.96232,640.079528 L157.33872,640.079528 L184.50256,711.612088 L173.38552,711.612088 Z" id="Fill-15" fill="#33498D" mask="url(#mask-2)"></path>
                  <path d="M202.388824,673.816176 L212.635544,673.816176 C224.525224,673.816176 227.424824,667.049856 227.424824,661.732896 C227.424824,656.415936 224.525224,649.649616 212.635544,649.649616 L202.388824,649.649616 L202.388824,673.816176 Z M202.388824,711.612176 L191.948504,711.612176 L191.948504,640.079616 L212.635544,640.079616 C229.745384,640.079616 237.865144,648.972896 237.865144,661.732896 C237.865144,674.492896 229.745384,683.386176 212.635544,683.386176 L202.388824,683.386176 L202.388824,711.612176 Z" id="Fill-16" fill="#33498D" mask="url(#mask-2)"></path>
                  <polygon id="Fill-17" fill="#33498D" mask="url(#mask-2)" points="246.95352 711.612 257.39296 711.612 257.39296 640.07944 246.95352 640.07944"></polygon>
                  <path d="M308.048136,677.006176 L315.201656,677.006176 C319.454696,677.006176 334.920696,676.812576 334.920696,662.988656 C334.920696,656.995856 330.861256,649.649616 319.067496,649.649616 L308.048136,649.649616 L308.048136,677.006176 Z M331.827496,711.612176 L308.241736,678.455536 L308.048136,678.455536 L308.048136,711.612176 L297.607816,711.612176 L297.607816,640.079616 L319.744216,640.079616 C329.798216,640.079616 335.017496,642.496096 338.788296,646.073296 C343.331736,650.422256 345.361016,656.995856 345.361016,662.988656 C345.361016,681.935936 329.507816,684.932336 324.867576,684.932336 L344.877896,711.612176 L331.827496,711.612176 Z" id="Fill-18" fill="#33498D" mask="url(#mask-2)"></path>
                  <polygon id="Fill-19" fill="#33498D" mask="url(#mask-2)" points="355.030192 711.612352 355.030192 640.079792 393.600592 640.079792 393.600592 649.649792 365.470512 649.649792 365.470512 670.722272 393.600592 670.722272 393.600592 680.292272 365.470512 680.292272 365.470512 702.042352 393.600592 702.042352 393.600592 711.612352"></polygon>
                  <path d="M441.3552,680.968728 L432.2692,653.612168 L432.0756,653.612168 L422.8928,680.968728 L441.3552,680.968728 Z M452.85856,711.612088 L444.93152,690.538728 L419.2188,690.538728 L411.29264,711.612088 L400.27152,711.612088 L427.43536,640.079528 L436.81176,640.079528 L463.9756,711.612088 L452.85856,711.612088 Z" id="Fill-20" fill="#33498D" mask="url(#mask-2)"></path>
                  <polygon id="Fill-21" fill="#33498D" mask="url(#mask-2)" points="472.774808 711.612352 472.774808 640.079792 483.215128 640.079792 483.215128 702.042352 508.058408 702.042352 508.058408 711.612352"></polygon>
                  <polygon id="Fill-22" fill="#33498D" mask="url(#mask-2)" points="541.119216 711.612352 541.119216 640.079792 579.689616 640.079792 579.689616 649.649792 551.559536 649.649792 551.559536 670.722272 579.689616 670.722272 579.689616 680.292272 551.559536 680.292272 551.559536 702.042352 579.689616 702.042352 579.689616 711.612352"></polygon>
                  <path d="M597.284512,690.442456 C597.284512,692.858936 598.347552,703.396056 608.884672,703.396056 C615.457392,703.396056 620.388032,698.852616 620.388032,691.311896 C620.388032,683.288936 613.814432,681.549176 608.884672,679.615816 C599.314672,675.941816 596.994992,674.781976 593.708192,671.591976 C590.421392,668.401976 588.874352,663.181816 588.874352,658.156136 C588.874352,649.841896 595.351152,638.725736 608.884672,638.725736 C620.774352,638.725736 629.378112,646.555976 629.378112,658.639256 L618.937792,658.639256 C618.937792,650.713096 613.137712,648.295736 608.884672,648.295736 C602.697392,648.295736 599.314672,653.903096 599.314672,658.059336 C599.314672,664.922456 605.791472,666.759016 608.884672,667.918856 C617.873872,671.302456 630.827472,674.106136 630.827472,691.311896 C630.827472,703.782376 622.030992,712.966056 608.884672,712.966056 C599.025152,712.966056 586.845072,706.392456 586.845072,690.442456 L597.284512,690.442456 Z" id="Fill-23" fill="#33498D" mask="url(#mask-2)"></path>
                  <polygon id="Fill-24" fill="#33498D" mask="url(#mask-2)" points="647.746176 711.612352 647.746176 649.649792 634.019056 649.649792 634.019056 640.079792 671.912736 640.079792 671.912736 649.649792 658.185616 649.649792 658.185616 711.612352"></polygon>
                  <path d="M712.621272,680.968728 L703.535272,653.612168 L703.341672,653.612168 L694.158872,680.968728 L712.621272,680.968728 Z M724.124632,711.612088 L716.197592,690.538728 L690.484872,690.538728 L682.558712,711.612088 L671.537592,711.612088 L698.701432,640.079528 L708.077832,640.079528 L735.240792,711.612088 L724.124632,711.612088 Z" id="Fill-25" fill="#33498D" mask="url(#mask-2)"></path>
                  <polygon id="Fill-26" fill="#33498D" mask="url(#mask-2)" points="748.399608 711.612352 748.399608 649.649792 734.672488 649.649792 734.672488 640.079792 772.566168 640.079792 772.566168 649.649792 758.839048 649.649792 758.839048 711.612352"></polygon>
                  <polygon id="Fill-27" fill="#33498D" mask="url(#mask-2)" points="779.625 711.612352 779.625 640.079792 818.1954 640.079792 818.1954 649.649792 790.06532 649.649792 790.06532 670.722272 818.1954 670.722272 818.1954 680.292272 790.06532 680.292272 790.06532 702.042352 818.1954 702.042352 818.1954 711.612352"></polygon>
                  <path d="M118.494024,767.65216 L125.154744,767.65216 C131.360504,767.65216 132.784344,763.21168 132.784344,761.04776 C132.784344,759.5104 132.157784,758.03024 131.304184,756.89152 C129.425384,754.38704 126.578584,754.32984 124.415544,754.32984 L118.494024,754.32984 L118.494024,767.65216 Z M118.494024,748.69344 L123.503864,748.69344 C129.254664,748.69344 130.278984,745.22096 130.278984,742.7728 C130.278984,736.79496 124.528184,736.79496 123.162424,736.79496 L118.494024,736.79496 L118.494024,748.69344 Z M112.345464,731.15768 L123.276824,731.15768 C135.175304,731.15768 136.427544,739.8688 136.427544,742.82912 C136.427544,747.4984 134.093784,749.54792 132.669944,750.80016 C134.435224,751.82536 138.932904,754.50056 138.932904,761.04776 C138.932904,765.37472 136.541944,773.28856 124.927704,773.28856 L112.345464,773.28856 L112.345464,731.15768 Z" id="Fill-28" fill="#84BF41" mask="url(#mask-2)"></path>
                  <path d="M156.471128,741.74716 L156.471128,758.82796 C156.471128,766.6274 159.944488,768.6778 164.327768,768.6778 C169.224088,768.6778 172.583048,765.54588 172.583048,758.65724 L172.583048,741.74716 L178.504568,741.74716 L178.504568,773.289 L173.096088,773.289 L173.096088,769.87284 L172.981688,769.87284 C171.388008,772.60524 167.687608,774.0854 163.701208,774.0854 C160.115208,774.0854 156.984168,772.94756 154.706728,770.95436 C152.086968,768.6778 150.549608,765.14724 150.549608,758.82796 L150.549608,741.74716 L156.471128,741.74716 Z" id="Fill-29" fill="#84BF41" mask="url(#mask-2)"></path>
                  <polygon id="Fill-30" fill="#84BF41" mask="url(#mask-2)" points="202.704216 783.821368 196.555656 783.821368 201.166856 772.662088 188.584616 741.746808 194.961096 741.746808 204.241576 766.229288 213.749096 741.746808 220.125576 741.746808"></polygon>
                  <polygon id="Fill-31" fill="#84BF41" mask="url(#mask-2)" points="275.6402 773.288824 275.6402 754.955784 258.27604 754.955784 258.27604 773.288824 252.1266 773.288824 252.1266 731.157944 258.27604 731.157944 258.27604 749.320264 275.6402 749.320264 275.6402 731.157944 281.78876 731.157944 281.78876 773.288824"></polygon>
                  <path d="M310.601368,746.301864 C303.314088,746.301864 299.783528,752.622024 299.783528,757.575544 C299.783528,763.268264 304.281208,768.677624 310.544168,768.677624 C316.749048,768.677624 321.532728,763.609704 321.532728,757.575544 C321.532728,750.856744 316.692728,746.301864 310.601368,746.301864 L310.601368,746.301864 Z M321.418328,773.288824 L321.418328,768.393384 L321.303928,768.393384 C319.026488,772.263624 314.871128,774.085224 310.601368,774.085224 C299.954248,774.085224 293.862888,765.944344 293.862888,757.631864 C293.862888,749.945944 299.271368,740.893384 310.601368,740.893384 C314.984648,740.893384 319.026488,742.715864 321.303928,746.188344 L321.418328,746.188344 L321.418328,741.746984 L327.339848,741.746984 L327.339848,773.288824 L321.418328,773.288824 Z" id="Fill-32" fill="#84BF41" mask="url(#mask-2)"></path>
                  <path d="M358.131664,746.301864 C351.925024,746.301864 347.598064,751.654024 347.598064,757.462024 C347.598064,763.838504 352.323664,768.677624 358.301504,768.677624 C363.881584,768.677624 368.948624,764.236264 368.948624,757.575544 C368.948624,751.938264 364.565344,746.301864 358.131664,746.301864 L358.131664,746.301864 Z M341.791824,741.746984 L347.200304,741.746984 L347.200304,746.586984 L347.313824,746.586984 C350.159744,742.487944 354.487584,740.893384 358.529424,740.893384 C369.232864,740.893384 374.870144,749.490104 374.870144,757.916984 C374.870144,765.887144 368.892304,774.085224 358.928064,774.085224 C352.323664,774.085224 349.021904,770.727144 347.825984,768.733944 L347.712464,768.733944 L347.712464,783.821544 L341.791824,783.821544 L341.791824,741.746984 Z" id="Fill-33" fill="#84BF41" mask="url(#mask-2)"></path>
                  <path d="M386.54352,773.28856 L392.46504,773.28856 L392.46504,741.74672 L386.54352,741.74672 L386.54352,773.28856 Z M386.54352,738.10352 L392.46504,738.10352 L392.46504,731.15768 L386.54352,731.15768 L386.54352,738.10352 Z" id="Fill-34" fill="#84BF41" mask="url(#mask-2)"></path>
                  <polygon id="Fill-35" fill="#84BF41" mask="url(#mask-2)" points="428.39368 773.28944 434.3152 773.28944 434.3152 766.34272 428.39368 766.34272"></polygon>
                  <path d="M469.568528,760.820192 C469.568528,762.243152 470.194208,768.449792 476.400848,768.449792 C480.271088,768.449792 483.175088,765.773712 483.175088,761.332352 C483.175088,756.607632 479.303968,755.582432 476.400848,754.443712 C470.763568,752.280672 469.397808,751.597792 467.460928,749.718992 C465.525808,747.839312 464.615008,744.765472 464.615008,741.805152 C464.615008,736.907952 468.428928,730.360752 476.400848,730.360752 C483.403008,730.360752 488.470048,734.972832 488.470048,742.089392 L482.321488,742.089392 C482.321488,737.420992 478.904448,735.997152 476.400848,735.997152 C472.756768,735.997152 470.763568,739.299792 470.763568,741.747072 C470.763568,745.789792 474.578368,746.871312 476.400848,747.555072 C481.694928,749.547392 489.323648,751.198272 489.323648,761.332352 C489.323648,768.677712 484.143968,774.085312 476.400848,774.085312 C470.592848,774.085312 463.419088,770.215072 463.419088,760.820192 L469.568528,760.820192 Z" id="Fill-36" fill="#84BF41" mask="url(#mask-2)"></path>
                  <path d="M525.024016,755.525584 C524.739776,750.914384 520.526336,746.302304 514.833616,746.302304 C509.139136,746.302304 504.926576,750.914384 504.642336,755.525584 L525.024016,755.525584 Z M504.642336,760.080464 C506.122496,766.172704 511.018816,768.677184 515.003456,768.677184 C519.388496,768.677184 522.576736,766.115504 523.999696,763.383104 L529.920336,763.383104 C526.902816,771.523984 519.672736,774.085664 514.775536,774.085664 C505.837376,774.085664 498.720816,766.399744 498.720816,757.461584 C498.720816,748.010384 506.008976,740.893824 514.889936,740.893824 C523.429456,740.893824 530.888336,747.839664 530.945536,757.062944 C530.945536,758.087264 530.832016,759.681824 530.774816,760.080464 L504.642336,760.080464 Z" id="Fill-37" fill="#84BF41" mask="url(#mask-2)"></path>
                  <polygon id="Fill-38" fill="#84BF41" mask="url(#mask-2)" points="542.56312 773.28856 548.48464 773.28856 548.48464 731.15768 542.56312 731.15768"></polygon>
                  <polygon id="Fill-39" fill="#84BF41" mask="url(#mask-2)" points="561.80696 773.28856 567.72848 773.28856 567.72848 731.15768 561.80696 731.15768"></polygon>
                  <polygon id="Fill-40" fill="#84BF41" mask="url(#mask-2)" points="626.48696 773.288824 626.48696 754.955784 609.1228 754.955784 609.1228 773.288824 602.97336 773.288824 602.97336 731.157944 609.1228 731.157944 609.1228 749.320264 626.48696 749.320264 626.48696 731.157944 632.63552 731.157944 632.63552 773.288824"></polygon>
                  <path d="M661.44804,746.301864 C654.16076,746.301864 650.6302,752.622024 650.6302,757.575544 C650.6302,763.268264 655.12788,768.677624 661.39172,768.677624 C667.5966,768.677624 672.3794,763.609704 672.3794,757.575544 C672.3794,750.856744 667.54028,746.301864 661.44804,746.301864 L661.44804,746.301864 Z M672.26588,773.288824 L672.26588,768.393384 L672.15148,768.393384 C669.87404,772.263624 665.71868,774.085224 661.44804,774.085224 C650.80092,774.085224 644.70956,765.944344 644.70956,757.631864 C644.70956,749.945944 650.11804,740.893384 661.44804,740.893384 C665.83132,740.893384 669.87404,742.715864 672.15148,746.188344 L672.26588,746.188344 L672.26588,741.746984 L678.18652,741.746984 L678.18652,773.288824 L672.26588,773.288824 Z" id="Fill-41" fill="#84BF41" mask="url(#mask-2)"></path>
                  <path d="M708.978336,746.301864 C702.771696,746.301864 698.444736,751.654024 698.444736,757.462024 C698.444736,763.838504 703.170336,768.677624 709.148176,768.677624 C714.728256,768.677624 719.795296,764.236264 719.795296,757.575544 C719.795296,751.938264 715.412016,746.301864 708.978336,746.301864 L708.978336,746.301864 Z M692.638496,741.746984 L698.046976,741.746984 L698.046976,746.586984 L698.160496,746.586984 C701.006416,742.487944 705.334256,740.893384 709.376096,740.893384 C720.079536,740.893384 725.716816,749.490104 725.716816,757.916984 C725.716816,765.887144 719.738976,774.085224 709.774736,774.085224 C703.170336,774.085224 699.868576,770.727144 698.672656,768.733944 L698.559136,768.733944 L698.559136,783.821544 L692.638496,783.821544 L692.638496,741.746984 Z" id="Fill-42" fill="#84BF41" mask="url(#mask-2)"></path>
                  <path d="M737.39072,773.28856 L743.31224,773.28856 L743.31224,741.74672 L737.39072,741.74672 L737.39072,773.28856 Z M737.39072,738.10352 L743.31224,738.10352 L743.31224,731.15768 L737.39072,731.15768 L737.39072,738.10352 Z" id="Fill-43" fill="#84BF41" mask="url(#mask-2)"></path>
                  <polygon id="Fill-44" fill="#84BF41" mask="url(#mask-2)" points="757.77416 773.28944 763.69568 773.28944 763.69568 766.34272 757.77416 766.34272"></polygon>
              </g>
          </g>
      </g>
    </symbol>


</svg>
